# xmcd CD database file
#
# Track frame offsets:
#	150
#	16446
#	36539
#	51780
#	67903
#	83137
#	96466
#	110793
#	130452
#	149031
#	161477
#	175535
#	191004
#	203350
#	217105
#	229961
#	245630
#	258963
#	270178
#	282372
#	297781
#	311081
#
# Disc length: 4311 seconds
#
# Revision: 0
# Processed by: cddbd v1.4PL0 Copyright (c) Steve Scherf et al.
# Submitted via: CDex 1.40Beta9
#
DISCID=5110d516
DTITLE=Intocable - 22 Exitos
DYEAR=2000
DGENRE=Country
TTITLE0=Introduccion
TTITLE1=Fuerte No Soy
TTITLE2=El Amigo Que Se Fue
TTITLE3=Un Desengaño
TTITLE4=Costumbre
TTITLE5=Soñador Eterno
TTITLE6=Todo Para Ti
TTITLE7=Perdedor
TTITLE8=Donde Estas?
TTITLE9=Vete Ya
TTITLE10=El Mejor De Mis Recuerdos
TTITLE11=Amor Maldito
TTITLE12=Dejame Ser Yo
TTITLE13=El Corazon Me Domina
TTITLE14=En Las Garras De Tu Corazon
TTITLE15=Eres Mi Droga
TTITLE16=Huracan
TTITLE17=Llevame Contigo
TTITLE18=Me Han Robado La Calma
TTITLE19=No Te Vayas
TTITLE20=Me Parece Que No
TTITLE21=Donde Quiera Que Estes
EXTD=YEAR: 2000 ID3G: 2
EXTT0=
EXTT1=
EXTT2=
EXTT3=
EXTT4=
EXTT5=
EXTT6=
EXTT7=
EXTT8=
EXTT9=
EXTT10=
EXTT11=
EXTT12=
EXTT13=
EXTT14=
EXTT15=
EXTT16=
EXTT17=
EXTT18=
EXTT19=
EXTT20=
EXTT21=
PLAYORDER=
